<?xml version="1.0" encoding="utf-8"?>
<!-- Generator: Adobe Illustrator 27.2.0, SVG Export Plug-In . SVG Version: 6.00 Build 0)  -->
<svg version="1.1" id="Layer_1" xmlns="http://www.w3.org/2000/svg" xmlns:xlink="http://www.w3.org/1999/xlink" x="0px" y="0px"
	 viewBox="0 0 595.28 841.89" style="enable-background:new 0 0 595.28 841.89;" xml:space="preserve">
<path d="M523.2,502.02c-2.6-12.94-6.91-25.33-14.58-36.22c-2.85-4.04-6.58-7.47-9.91-11.17c-0.46,0.28-0.91,0.56-1.37,0.84
	c0,2.61,0.32,5.27-0.06,7.83c-1.55,10.46-2.34,21.16-5.2,31.26c-7.09,25.15-21.81,45.42-42.09,61.81
	c-7.28,5.88-13.35,12.91-17.51,21.4c-2.56,5.23-4.26,10.71-4.09,17.71c14.36-11.78,29.22-19.34,48.32-14.71
	c-1.01,1.47-2.78,2.13-3.99,3.35c-19.92,20.25-44.87,31.47-71.39,39.88c-1.22,0.39-2.64,0.63-3.87,0.41
	c-13.5-2.43-25.6-7.8-35.5-17.51c-19.52-19.15-28.1-43.01-30.11-69.77c-2.36-31.44-5.55-62.84-7.17-94.32
	c-1.9-36.93-2.51-73.93-3.64-110.9c-0.03-1.13,0.29-2.27,0.44-3.41c0.43,0.03,0.85,0.06,1.28,0.09c0.14,2.24-0.04,4.56,0.5,6.7
	c0.64,2.52,1.9,4.89,2.89,7.32c1.9-1.61,3.79-3.22,5.7-4.81c0.19-0.16,0.48-0.2,0.26-0.12c1,3.78,0.87,9.26,3.35,11.01
	c2.75,1.93,7.9,0.44,12.23,0.44c-2.59,7.92,0.84,13,10.08,14.18c-5,5.75-4.81,6.72,1.56,14.28c-2.17,1.6-5.33,2.78-6.28,4.94
	c-1.1,2.5-0.26,5.86-0.26,8.89c-9.91-1.73-11.98-0.24-14.46,10.58c-4.2,0-8.53,0-12.6,0c0,6.29-0.16,12.03,0.05,17.75
	c0.21,5.81,0.79,11.61,1.31,18.8c2.6-3.18,4.31-5.28,6.19-7.57c3.86,4.27,7.95,2.69,12.35,0.71c5.31-2.4,4.8-6.94,4.59-11.72
	c2.95,3.87,6.38,3.99,9.66,1.88c2.4-1.54,5.13-3.61,6.06-6.07c0.89-2.35-0.34-5.5-0.64-8.34c3.78,0.93,7.63,1.86,10.43-1.95
	c4.06-5.53,6.11-11.13-1.15-16.45c6.75-0.96,8.75-2.91,9.47-9.41c0.24-2.17-0.09-4.86-1.24-6.59c-1.12-1.68-3.62-2.44-5.57-3.64
	c3.42-1.97,7.69-3.55,6.64-8.63c-0.64-3.1-1.56-6.6-3.56-8.84c-1.84-2.08-5.29-2.73-8.14-4.06c3.4-3.39,2.7-7.05,0.17-10.96
	c-3.88-5.99-8.91-2.94-13.76-1.62c0.97-7.53-0.85-9.69-8.21-9.57c-5.15,0.08-10.29,0.49-15.43,0.86c-3.94,0.29-7.86,0.75-11.79,1.13
	c-0.04-0.73-0.09-1.45-0.13-2.18c32.5-4.8,65.36-3.76,98.73-5.46c0,12.59,0,24.59,0,37.35c5.75-2.1,10.73-3.81,15.63-5.72
	c7.73-3.02,12.39-8.64,14.13-16.79c4.58-21.49,4.66-43,0.08-64.46c-2.92-13.68-10.96-21.13-30.03-24.15c0,12.06,0,24.03,0,36.21
	c-1.84,0-3.01,0.03-4.17-0.01c-18.7-0.63-37.42-1-56.1-2c-12.05-0.64-24.08-1.93-36.05-3.49c-4.84-0.63-9.49-2.77-14.22-4.22
	c0.12-0.46,0.25-0.93,0.37-1.39c2.67-0.42,5.34-0.83,7.92-1.24c0.18-0.8,0.35-1.22,0.36-1.65c0.83-28.28,1.65-56.55,2.46-84.83
	c0.18-6.25-1.96-9.62-7.91-11.66c-10.07-3.45-20.32-3.14-30.46-0.42c-8.16,2.18-10.41,6.23-9.85,14.67c1.16,17.49,2.2,35,2.89,52.51
	c0.41,10.57,0.08,21.17,0.08,31.77c2.67,0.58,5.01,1.08,7.36,1.59c0.07,0.5,0.14,0.99,0.21,1.49c-5.17,1.17-10.29,2.87-15.53,3.39
	c-10.02,1-20.12,1.18-30.16,1.97c-11,0.87-21.96,2.38-32.98,2.97c-9.35,0.5-18.75,0.1-28.63,0.1c0-12,0-23.99,0-36.07
	c-18.95,4.24-27.27,9.07-30.91,29.82c-3.29,18.78-2.69,37.59,0.81,56.28c2.61,13.94,15.44,24.23,30.44,24.33
	c0-12.01,0-24.02,0-35.96c0.95-0.19,1.38-0.36,1.8-0.35c23.42,0.79,46.85,1.39,70.26,2.52c7.88,0.38,15.7,2.06,23.53,3.29
	c2.69,0.42,3.83,2.22,3.69,5.06c-0.24,4.71-0.24,9.43-0.31,14.15c-0.88,61.91-1.86,123.82-7.53,185.52
	c-1.71,18.65-5.84,36.91-13.88,54.07c-9.82,20.94-25.49,34.64-48.37,39.51c-1.81,0.38-3.91,0.66-5.6,0.12
	c-24.58-7.86-47.95-18.07-67.48-35.54c-3.01-2.69-5.95-5.46-9.4-8.63c19.38-4,34.15,3.54,48.33,14.98
	c-0.58-8.59-2.21-15.91-6.86-21.78c-5.55-6.99-11.45-13.91-18.16-19.76c-25.23-21.97-40.37-49.12-44.07-82.48
	c-0.59-5.28-0.78-10.6-1.19-16.42c-8.47,6.34-13.28,14.54-17.27,23.32c-7.03,15.49-9.58,32.08-11.9,48.73
	c-2.8,20.06-4.62,40.15-0.37,60.25c2.76,13.07,6.73,25.67,15.83,35.95c1.54,1.74,3.48,3.13,6.05,5.41
	c-1.24-15.45,3.9-26.91,14.9-35.97c0.71,1.54,1.38,2.98,2.05,4.44c6.56,14.4,14.57,27.9,24.33,40.39
	c21.38,27.37,48.59,47.9,77.66,66.19c28.89,18.18,59.74,33.2,86.39,53.52c17.73-11.09,34.57-22.2,51.96-32.36
	c23.79-13.9,47.55-27.75,69.61-44.35c28.9-21.73,52.06-48.12,67.09-81.27c1.01-2.23,2.16-4.39,3.3-6.68
	c11.2,9.29,16.71,20.7,15.8,35.45c3.52-3.1,6.85-6.17,9.27-9.84c8.59-13.03,11.71-27.86,12.95-43.11
	C531.93,550.19,528.03,526.03,523.2,502.02z M436.44,299.02c5.25-5.89,4.73-13.35,5.66-20.41c0.15-1.15,0.27-2.31,0.72-3.44
	c3.15,16.66,3,33.18-1.19,48.38c-1.6-6.89-3.42-14.69-5.2-22.49C436.28,300.4,436.1,299.41,436.44,299.02z M162.45,301.6
	c-1.42,7.74-2.92,15.47-4.3,22.69c-4.35-15.43-4.47-31.91-1.23-48.59c0.2,2.14,0.13,4.35,0.67,6.39c1.44,5.46,3.19,10.84,4.73,16.27
	C162.59,299.38,162.64,300.56,162.45,301.6z M91.91,576.11c-7.1-17.85-4.15-37.19-2.74-56.45c0.38,3.46,0.67,6.94,1.16,10.39
	c0.51,3.63,1.14,7.25,1.83,10.86c0.33,1.72,0.78,3.45,1.43,5.08c5.13,12.94,3.32,11.38,17.13,10.4c4.31-0.3,8.53-1.93,12.78-2.95
	c0.21,0.2,0.42,0.39,0.63,0.59C113.44,561.35,102.77,568.67,91.91,576.11z M430.1,633.11c0.4,0.68,0.81,1.37,1.21,2.05
	c-5.62,3.31-11.23,6.61-16.85,9.92c-0.39-0.66-0.77-1.31-1.16-1.97C418.9,639.78,424.5,636.45,430.1,633.11z M292.18,185.36
	c3.57-3.49,9.11-3.78,12.85-0.67c3.68,3.07,4.39,7.15,1.93,11.1c-0.56-2.4-0.47-5.33-1.86-7.05c-1.44-1.78-4.29-3.22-6.6-3.35
	c-4.81-0.26-7.02,3.56-7.06,10.88C288.57,192.38,288.83,188.65,292.18,185.36z M271.03,317.17c-17.82-2.09-35.77-3.16-53.66-4.65
	c-1.27-0.11-2.54-0.18-3.81-0.27c0.01-0.41,0.03-0.81,0.04-1.22c21.62,0.72,43.25,1.27,64.86,2.26c8.71,0.4,15.89,4.22,20.18,12.78
	c4.5-9.53,12.86-12.33,21.89-12.76c22.93-1.08,45.88-1.58,68.83-2.32c0.02,0.46,0.03,0.91,0.05,1.37
	c-10.36,0.65-20.76,0.97-31.08,2.03c-13.89,1.43-27.76,3.13-41.56,5.29c-7.11,1.11-13.29,4.69-17.93,10.99
	C291.48,321.7,281.46,318.39,271.03,317.17z M275.22,623.98c0.44,0.53,2.38,1.9,2.19,2.81c-0.72,3.4-3.47,5.09-6.81,5.02
	c-1.1-0.02-2.89-1.49-3.12-2.57C266.96,626.84,270.78,623.97,275.22,623.98z M168.85,635.81c-8.24-0.85-28.32-14.3-28.89-21.17
	C149.74,621.81,159.52,628.98,168.85,635.81z M426.12,650.78c7.91-3.3,15.81-6.59,23.72-9.89c0.15,0.2,0.3,0.4,0.45,0.59
	c-3.08,2.8-6.11,5.64-9.24,8.38c-19.82,17.36-41.59,31.82-64.97,43.95c-15.27,7.92-30.62,12.65-47.54,2.69
	c0.31,3.48,0.72,6,0.72,8.52c0.01,5.33-2.62,7.89-7.93,7.75c-7.45-0.21-13.08-4.18-17.91-9.35c-2.71-2.9-4.99-6.19-7.43-9.33
	c-5.82-7.52-13.26-10.61-22.2-7.37c-6.2,2.25-11.95,6.13-17.37,10.03c-2.8,2.01-4.91,2.89-8.3,2.01
	c-27.26-7.09-51.83-19.88-75.3-35.07c-4.52-2.93-8.99-5.95-13.12-9.56c7.75,2.98,15.43,6.19,23.28,8.88
	c15.71,5.38,31.62,10.22,47.25,15.82c6.98,2.5,13.74,5.07,21.31,4.46c7.22-0.58,13.83-2.84,19.65-7.14
	c3.63-2.68,6.25-6.13,6.77-12.02c-6.47,0.38-12.53,0.75-18.96,1.13c-0.9-4.87-4.99-6.43-9.66-5.87c-7.26,0.87-14.53,2.07-21.64,3.78
	c-7.96,1.92-15.68,1.78-23.55-0.26c-22.36-5.8-42.61-15.92-60.97-29.99c7.23,3.34,14.39,6.82,21.69,9.99
	c11.73,5.1,23.67,9.72,35.29,15.06c13.52,6.22,26.16,3.84,38.31-3.21c3.88-2.25,7.3-3.2,11.79-2.39
	c12.54,2.26,24.23-0.82,35.28-6.79c1.03-0.56,2.02-1.22,2.97-1.91c13.02-9.41,12.18-21.01-2.05-28.41
	c-2.87-1.49-5.87-2.79-8.58-4.54c-5.12-3.31-5.25-8.13-0.55-11.95c0.46-0.37,0.91-0.78,1.43-1.03c10.53-4.87,12.89-14.18,13.2-24.51
	c0.53-18.02,0.23-35.95-6.39-52.99c0.25-0.4,0.34-0.76,0.56-0.88c8.5-4.46,10.57-11.37,10.61-20.88c0.18-42.6,1.28-85.19,2.26-127.8
	c0.6,16.47,1.03,32.94,1.82,49.4c1.5,31.06,3.25,62.1,4.69,93.16c0.08,1.81-1.21,4.53-2.71,5.41c-8.01,4.75-7.78,11.21-6.17,19.36
	c2.01,10.2,2.33,20.75,3.1,31.16c0.23,3.17-0.45,6.4-0.77,10.26c5.56,0,11.41,0,17.25,0c0.05,0.46,0.1,0.92,0.16,1.38
	c-4.35,1.11-8.67,2.42-13.07,3.27c-2.52,0.49-3.4,1.48-3.34,4.06c0.14,5.45-0.33,10.92-0.05,16.35c0.3,5.83,2.95,10.34,8.72,12.64
	c1.12,0.45,1.92,1.69,2.85,2.59c2.43,2.35,4.84,4.72,7.27,7.07c2.04,1.96,3.97,1.79,6.73,0.83c6.44-2.24,13.16-3.66,19.77-5.42
	c-0.01,0.4-0.02,0.8-0.04,1.2c-3.28,2.17-6.86,4.01-9.77,6.6c-3.53,3.14-2.65,6.43,1.99,7.13c8.29,1.24,16.67,1.8,25.01,2.71
	c4.81,0.53,9.6,1.21,13.78,1.74c-9.72,3-19.84,6.12-31.15,9.61c-5.94-5.2-14.37-9.19-24.04-9.9c-9.31-0.69-17.5,2.27-23.84,9.25
	c-6.04,6.65-5.77,14.49,0.49,21.46c7.16,7.97,16.59,12.05,26.58,14.96c25.63,7.48,49.2,3.53,70.37-13.11
	c0.55-0.44,1.06-0.94,2.51-2.24c-7.77,1.4-14.38,2.69-21.03,3.76c-6.8,1.1-13.64,1.98-20.5,2.48c8.44-2.54,17.04-4.63,25.27-7.7
	c22.45-8.38,41.76-22.19,60.89-36.23c5.34-3.92,10.64-7.91,16.06-11.72c1.82-1.28,3.96-2.12,6.45-2.39
	C453.33,632.36,438.82,640.3,426.12,650.78z M325.86,671.67c-2.15,4.2-3.85,4.41-8.13,0.74
	C320.93,672.11,323.14,671.91,325.86,671.67z M511.08,582.38c-6.77-16.05-22.72-19.31-33.54-27.95c6.7,0.77,13.71,1.55,20.72,2.38
	c4.08,0.49,6.66-1.44,7.41-5.23c2.06-10.5,4.01-21.03,5.67-31.59c0.69-4.4,0.55-8.93,0.78-13.4
	C516.06,531.55,518.12,556.43,511.08,582.38z M233.32,193.73c-12.14-43.77,22.91-88.1,68.23-86.26c29.17,1.19,55.15,24.32,61.4,54.6
	c6.35,30.75-10.93,61.27-39.07,74.29c-0.24,0.11-0.57,0.01-0.94,0.01c0-7.49-0.13-14.83,0.12-22.15c0.04-1.25,1.51-2.67,2.65-3.62
	c14.81-12.47,20.68-28.22,15.78-46.97c-4.86-18.6-17.28-30.31-36.27-33.83c-24.69-4.58-50.03,16.47-51.23,41.87
	c-0.73,15.48,4.98,28.08,16.42,38.38c1.6,1.44,2.88,4.09,2.96,6.24c0.34,8.36,0.14,16.74,0.14,25.37c-0.71-0.26-1.87-0.45-2.77-1.04
	C253.26,229,239.14,214.7,233.32,193.73z M192.12,454.86c-2.6-4.33-0.14-7.05,3.26-9.47c5.61-4,13.29-4.28,17.96-10
	c0.24-0.3,0.79-0.4,1.22-0.49c5.66-1.15,11.41-1.1,16.5-5.23c2.34-1.9,7.18-0.71,11.72-0.97c4.29-5.7,8.82-7.12,15.7-4.12
	c3.16-4.64,7.14-6.58,13.16-6.46c0,8.79,0.24,17.59-0.13,26.36c-0.13,3.05-4.27,3.23-8.17,0.49c-3.2,9.38-10.01,12.58-15.85,6.76
	c-1.12,6.33-5.63,9.01-10.99,10.1c-1.86,0.38-4.11-1.2-6.38-1.96c-3.97,6.88-7.57,8.46-13.79,5.48c0.63,6.43,0.63,6.43-7.61,11.1
	c3.02,2.23,3.02,2.23,1.59,8.99c8.31-1.4,11.37,0.91,12.11,9.17c11.46-1.48,16.3,0.21,19.59,6.94c4.17-2.53,8.24-6.62,13.45-3.5
	c1.58,0.95,1.68,4.37,2.42,6.55c2.76-1.75,6.25-3.96,9.74-6.18c0.43,0.27,0.86,0.54,1.28,0.81c-0.84,11.03-1.68,22.06-2.51,32.97
	c-9.39,1.45-12.78-0.82-14.43-10.01c-3.66,5.57-8.11,7.98-14.31,5.43c-4.46-1.83-2.5-5.72-3.32-9.59c-5.86,7.7-12.58,4.8-19.13,2.06
	c-2.76-1.16-2.81-2.13-2.49-10.03c-4.68,3.88-9.35,4.21-13.92,0.52c-4.21-3.39-2.49-7.64-1.15-12.45c-1.84,0.77-3.11,1.73-4.37,1.72
	c-1.56-0.02-3.86-0.36-4.53-1.41c-3.28-5.13-6.22-10.51-2.87-16.86c0.54-1.02,0.83-2.18,1.34-3.55
	C179.78,472.15,182.06,461.62,192.12,454.86z M395.65,552.22c6.98,8.29,7.08,9.9,2.28,17.44c-3,4.71-6.89,4.19-11.51,2.04
	c0.29,4.51,2.88,8.89-1.91,12.4c-3.77,2.77-7.4,4.81-12.49,3.23c-0.01,4.01,0.21,8.07-4.18,8.92c-1.17-8.96-2.34-17.94-3.56-27.28
	c14.15-1.09,6.21-12.02,8.7-18.91c1.11,0,2.63,0,3.97,0c-1.13-1.95-3.44-4.16-3.18-6c0.23-1.65,3.3-2.89,5.04-4.26
	c-8.53-7.05-8.84-10.07-1.43-17.13c-11.67-3.58-12.22-4.38-10.26-15.62c-3.65,2.27-6.85,1.35-9.04-1.47
	c-1.84-2.37-2.89-5.35-4.66-8.78c-9.06-1.33-9.06-1.33-9.48-11.37c-3.44,0.16-6.91,0.73-10.24,0.27c-1.34-0.18-3.24-2.54-3.4-4.06
	c-1.11-10.67-1.83-21.37-2.69-32.35c8.42-0.84,10.33,0.75,11.37,7.72c3.95,0.4,8.22-0.26,11.12,1.43c2.78,1.62,4.15,5.68,6.47,9.16
	c9.78-1.7,14,1.96,12.09,12.08c4.3,0.42,9.17-1.69,12.35,3.45c2.64,4.26,3.18,8.11-0.97,13.16c6.63-2.61,11.53-2.48,14.49,3.64
	c2.28,4.72,1.72,8.12-2.82,13.13c4.79-0.09,9.3,0.11,10.62,5.55c1.31,5.38,0.34,9.97-6.28,13.21c6.74,2.01,10.52,5.21,9.23,11.97
	C404.27,549.11,401.47,552.17,395.65,552.22z M210.41,268.9c-1.32-9.18-0.35-10.72,7.34-13.03c-0.94-2.91-3.07-5.95-2.3-7.78
	c1.88-4.48,4.36-9.23,10.18-9.95c2.02-0.25,4.09-0.04,6.14-0.03c-1.18-6.33,0.15-8.92,6.01-11.7c0.27-0.13,0.52-0.27,0.79-0.39
	c7.28-3.2,7.15-3.07,12.88,2.4c4.25,4.07,8.97,7.64,13.26,11.67c1.49,1.4,2.32,3.52,3.44,5.32c-2.16,1.06-4.25,2.7-6.5,2.97
	c-1.48,0.18-3.26-1.52-4.78-2.57c-0.63-0.43-0.93-1.34-1.21-1.77c-0.93,3.54-0.82,8.17-3.05,10.1c-2.14,1.85-6.7,0.9-9.99,1.17
	c0.19,2.03,1.74,5.94,0.41,7.92c-1.31,1.95-5.53,1.94-7.93,2.63c2.27,2.12,5.3,4.96,8.33,7.79c-0.1,0.51-0.2,1.01-0.31,1.51
	c-6.16,0.95-12.31,1.95-18.48,2.84c-1.89,0.27-3.82,0.26-5.73,0.4c-6,0.44-7.11-0.42-8.13-6.43
	C210.6,270.96,210.56,269.92,210.41,268.9z M339.84,560.96c0.89-1.87,2.02-3.62,2.25-5.94c-1.3,0.83-2.6,1.65-4.89,3.11
	c-1.57-13.89-3.05-27.05-4.56-40.37c8.94,0.82,12.65,4.22,13.34,12.04c5.9-1.93,11.09-1.84,14.7,4.45
	c2.44,4.26,0.55,7.21-1.88,10.36c9.22,2.08,13.27,8.82,10.99,17.91c-0.66,2.62-2.75,3.26-9.47,2.39c1.56,7.14,3.75,13.51,4.14,19.98
	c0.33,5.58-1.4,11.28-2.93,16.93c-10.55-10.95-18.56-22.89-22.73-37.1C338.48,563.65,339.28,562.13,339.84,560.96z M457.76,314.88
	c0-8.87,0-17.3,0-26.45c5.2,3.46,8.63,7.4,8.51,13.46C466.15,307.71,463.05,311.72,457.76,314.88z M133.9,303.9
	c-0.92-6.27,1.83-11.07,7.53-15.13c0,8.76,0,16.79,0,25.32C136.87,311.92,134.56,308.35,133.9,303.9z M267.52,334.99
	c-1.09-1.25-1.99-4.44-1.33-5.09c1.58-1.55,4.09-2.24,6.33-2.91c0.33-0.1,1.72,1.74,1.82,2.75c0.26,2.75,0.09,5.54,0.09,9.93
	C271.4,337.7,269.03,336.71,267.52,334.99z M246.06,324.83c6.8,0.44,13.06,0.85,19.92,1.3C257.3,332.4,252.4,332.1,246.06,324.83z
	 M321.28,701.3c1.38,4.07,0.7,5.08-3.48,5.17c-7.22,0.15-12.47-5.44-12.12-12.91C313,691.93,319.13,694.97,321.28,701.3z"/>
</svg>
